<svg xmlns="http://www.w3.org/2000/svg"  viewBox="0 0 50 50" width="50px" height="50px"><path d="M 14 5 C 9.029 5 5 9.029 5 14 L 5 36 C 5 40.971 9.029 45 14 45 L 36 45 C 40.971 45 45 40.971 45 36 L 45 14 C 45 9.029 40.971 5 36 5 L 14 5 z M 15.96875 11.0625 C 17.479017 11.015493 18.681641 11.569594 18.681641 13.355469 C 18.681641 17.437469 14.912109 23.40625 14.912109 23.40625 L 16.796875 24.662109 C 16.796875 24.662109 22.135359 19.165766 21.193359 12.884766 C 22.901359 13.615766 26.685062 17.655328 26.664062 20.611328 C 24.775063 22.765328 21.823688 24.957609 18.929688 26.349609 L 18.681641 26.546875 C 18.681641 26.546875 19.189797 27.488953 19.591797 28.876953 C 19.961797 30.152953 20.2385 31.959328 19.9375 33.611328 C 14.2845 24.189328 6.7460938 26.703125 6.7460938 26.703125 C 6.4320937 26.389125 5.8046875 25.290703 5.8046875 23.720703 C 5.8046875 22.118703 6.433 21.050781 7.375 21.050781 C 8.317 21.050781 11.457484 21.836391 11.771484 22.150391 C 12.085484 20.580391 13.341625 15.711766 10.515625 12.884766 C 11.575375 12.178266 14.026978 11.122938 15.96875 11.0625 z M 27.519531 22.634766 C 27.886531 22.870766 28.103516 23.194453 28.103516 23.564453 C 28.103516 26.068453 29.988141 27.162109 31.244141 27.162109 C 32.500141 27.162109 32.926766 26.658172 34.384766 26.076172 C 35.954766 25.450172 33.443953 28.906703 32.501953 29.845703 C 35.013953 32.349703 41.293641 27.020359 43.806641 24.193359 C 43.804641 29.826359 35.325719 34.361781 35.011719 35.300781 C 34.835719 35.826781 34.167188 38.115422 33.117188 39.482422 C 33.097187 39.152422 33.0335 38.667375 32.8125 39.109375 C 32.4985 39.737375 31.870641 39.109969 31.556641 38.167969 C 31.242641 37.225969 32.4985 36.597969 32.8125 38.167969 C 33.4405 37.225969 33.125141 35.341797 31.869141 35.341797 C 30.299141 35.341797 30.927734 37.539062 30.927734 37.539062 C 30.927734 37.539062 30.317875 37.244109 29.671875 36.912109 C 31.259875 39.129109 31.371734 39.904734 30.927734 40.052734 L 30.5 40.154297 C 30.333 40.031297 30.161328 39.876594 29.986328 39.683594 C 27.160328 36.553594 24.334266 35.495141 21.822266 34.869141 C 22.116266 33.989141 22.199734 32.863406 22.177734 31.816406 C 22.560734 33.014406 25.57575 34.277078 26.21875 32.830078 C 27.47475 30.004078 29.673234 30.318359 30.615234 30.318359 C 27.474234 28.748359 26.219797 31.260219 25.591797 31.574219 C 24.963797 31.888219 24.020578 30.946359 23.392578 30.318359 C 22.591578 29.517359 23.079031 29.061594 23.707031 28.433594 C 21.985031 28.433594 21.163125 28.069906 20.828125 27.628906 C 23.295125 26.298906 25.724531 24.484766 27.519531 22.634766 z M 24.333984 29.085938 C 24.179734 29.085938 24.02425 29.143719 23.90625 29.261719 C 23.67025 29.497719 23.67025 29.879234 23.90625 30.115234 L 24.535156 30.742188 C 24.653156 30.860187 24.806938 30.919922 24.960938 30.919922 C 25.114937 30.919922 25.269719 30.860187 25.386719 30.742188 C 25.622719 30.506187 25.622719 30.126625 25.386719 29.890625 L 24.759766 29.261719 C 24.641766 29.143719 24.488234 29.085938 24.333984 29.085938 z"/></svg>